<svg width="192" height="73" viewBox="0 0 192 73" fill="none" xmlns="http://www.w3.org/2000/svg">
<path d="M106.685 47.3697V46.5178C106.783 46.6039 106.9 46.6808 107.035 46.7515C107.17 46.8192 107.315 46.8776 107.466 46.9268C107.616 46.9729 107.767 47.0098 107.921 47.0375C108.072 47.0621 108.213 47.0775 108.342 47.0775C108.788 47.0775 109.12 46.9945 109.339 46.8315C109.557 46.6654 109.668 46.4286 109.668 46.1179C109.668 45.9519 109.631 45.8073 109.557 45.6843C109.483 45.5613 109.382 45.4475 109.253 45.346C109.123 45.2445 108.97 45.1461 108.794 45.0538C108.619 44.9615 108.428 44.8631 108.225 44.7585C108.01 44.6509 107.81 44.5402 107.623 44.4264C107.435 44.3157 107.275 44.1926 107.137 44.0573C106.998 43.922 106.891 43.7713 106.811 43.5991C106.731 43.4268 106.694 43.2269 106.694 42.9993C106.694 42.7194 106.755 42.4734 106.878 42.2643C107.001 42.0551 107.164 41.886 107.364 41.7507C107.564 41.6153 107.795 41.5169 108.05 41.4492C108.305 41.3847 108.57 41.3508 108.834 41.3508C109.443 41.3508 109.886 41.4246 110.163 41.5692V42.3811C109.8 42.1289 109.33 42.0028 108.761 42.0028C108.604 42.0028 108.444 42.0182 108.287 42.0521C108.13 42.0859 107.989 42.1382 107.866 42.212C107.743 42.2858 107.641 42.3842 107.564 42.5011C107.487 42.618 107.447 42.7625 107.447 42.9317C107.447 43.0885 107.478 43.2269 107.536 43.3407C107.595 43.4545 107.681 43.5591 107.798 43.6544C107.915 43.7498 108.053 43.842 108.216 43.9312C108.382 44.0204 108.57 44.1188 108.785 44.2234C109.007 44.331 109.216 44.4479 109.413 44.5679C109.609 44.6878 109.785 44.8231 109.932 44.9677C110.083 45.1153 110.2 45.2752 110.286 45.4536C110.375 45.632 110.418 45.835 110.418 46.0656C110.418 46.3701 110.36 46.6285 110.24 46.8376C110.12 47.0498 109.96 47.219 109.757 47.3512C109.554 47.4835 109.32 47.5788 109.059 47.6373C108.794 47.6957 108.518 47.7264 108.225 47.7264C108.127 47.7264 108.007 47.7172 107.866 47.7018C107.721 47.6865 107.576 47.6619 107.426 47.6342C107.278 47.6034 107.137 47.5665 107.001 47.5235C106.869 47.4804 106.761 47.4312 106.681 47.3758L106.685 47.3697Z" fill="#636363"/>
<path d="M114.14 47.7233C113.266 47.7233 112.565 47.4342 112.039 46.859C111.513 46.2839 111.249 45.5335 111.249 44.6077C111.249 43.6143 111.516 42.8239 112.054 42.2334C112.593 41.6429 113.322 41.3477 114.244 41.3477C115.096 41.3477 115.782 41.6337 116.305 42.2088C116.825 42.7839 117.086 43.5313 117.086 44.4601C117.086 45.4658 116.818 46.2624 116.286 46.8498C115.754 47.4372 115.038 47.7263 114.143 47.7263L114.14 47.7233ZM114.192 41.9997C113.543 41.9997 113.017 42.2334 112.614 42.7009C112.208 43.1684 112.008 43.7835 112.008 44.5432C112.008 45.3028 112.205 45.9148 112.599 46.3793C112.992 46.8437 113.509 47.0743 114.143 47.0743C114.819 47.0743 115.354 46.8529 115.745 46.4131C116.136 45.9733 116.329 45.352 116.329 44.5585C116.329 43.765 116.139 43.113 115.76 42.6701C115.382 42.2273 114.859 42.0027 114.195 42.0027L114.192 41.9997Z" fill="#636363"/>
<path d="M121.499 47.6186H118.298V41.4491H119.021V46.9666H121.499V47.6217V47.6186Z" fill="#636363"/>
<path d="M126.789 45.1245C126.789 46.856 126.008 47.7233 124.446 47.7233C122.883 47.7233 122.201 46.8899 122.201 45.2229V41.4492H122.923V45.1768C122.923 46.4408 123.455 47.0744 124.526 47.0744C125.596 47.0744 126.07 46.4624 126.07 45.2414V41.4492H126.792V45.1245H126.789Z" fill="#636363"/>
<path d="M132.528 47.3604C132.073 47.6003 131.504 47.7233 130.824 47.7233C129.948 47.7233 129.244 47.4403 128.715 46.8744C128.186 46.3085 127.924 45.5673 127.924 44.6508C127.924 43.6636 128.219 42.867 128.816 42.258C129.41 41.6491 130.163 41.3446 131.077 41.3446C131.661 41.3446 132.147 41.4307 132.531 41.5999V42.3688C132.089 42.1227 131.603 41.9997 131.067 41.9997C130.36 41.9997 129.785 42.2365 129.345 42.7101C128.905 43.1838 128.684 43.8173 128.684 44.6078C128.684 45.3982 128.89 45.9579 129.302 46.4039C129.714 46.8498 130.252 47.0744 130.923 47.0744C131.541 47.0744 132.079 46.936 132.531 46.6622V47.3635L132.528 47.3604ZM131.652 48.7198C131.652 49.2242 131.258 49.4764 130.468 49.4764C130.36 49.4764 130.265 49.4764 130.188 49.4671V49.0796C130.311 49.0981 130.412 49.1042 130.489 49.1042C130.895 49.1042 131.095 48.975 131.095 48.7167C131.095 48.4922 130.911 48.3815 130.542 48.3815C130.514 48.3815 130.452 48.3876 130.366 48.3999V47.6157H130.831V48.0647C131.083 48.0647 131.283 48.1231 131.43 48.2369C131.578 48.3507 131.652 48.5137 131.652 48.7198V48.7198Z" fill="#636363"/>
<path d="M136.035 47.7233C135.161 47.7233 134.46 47.4342 133.934 46.859C133.408 46.2839 133.143 45.5335 133.143 44.6077C133.143 43.6143 133.411 42.8239 133.949 42.2334C134.484 41.6429 135.216 41.3477 136.139 41.3477C136.991 41.3477 137.677 41.6337 138.2 42.2088C138.719 42.7839 138.981 43.5313 138.981 44.4601C138.981 45.4658 138.713 46.2624 138.181 46.8498C137.649 47.4372 136.933 47.7263 136.038 47.7263L136.035 47.7233ZM136.087 41.9997C135.438 41.9997 134.912 42.2334 134.509 42.7009C134.103 43.1684 133.903 43.7835 133.903 44.5431C133.903 45.3028 134.1 45.9148 134.494 46.3792C134.887 46.8437 135.404 47.0743 136.038 47.0743C136.714 47.0743 137.249 46.8529 137.64 46.4131C138.031 45.9733 138.224 45.352 138.224 44.5585C138.224 43.765 138.034 43.113 137.655 42.6701C137.277 42.2273 136.754 42.0027 136.09 42.0027L136.087 41.9997ZM137.486 39.8652C137.486 40.1666 137.419 40.4127 137.28 40.6034C137.142 40.7941 136.957 40.8894 136.72 40.8894C136.517 40.8894 136.284 40.8156 136.022 40.6649C135.801 40.5419 135.632 40.4803 135.509 40.4803C135.256 40.4803 135.13 40.6433 135.13 40.9663H134.724C134.724 40.6587 134.792 40.4127 134.93 40.2282C135.069 40.0436 135.259 39.9513 135.509 39.9513C135.696 39.9513 135.908 40.0252 136.148 40.1759C136.361 40.302 136.545 40.3666 136.699 40.3666C136.939 40.3666 137.059 40.2005 137.059 39.8683H137.48L137.486 39.8652Z" fill="#636363"/>
<path d="M143.462 47.6186H140.193V41.4491H143.327V42.1042H140.918V44.1556H143.148V44.8045H140.918V46.9636H143.465V47.6186H143.462Z" fill="#636363"/>
<path d="M144.363 47.3696V46.5176C144.461 46.6037 144.578 46.6806 144.714 46.7514C144.849 46.819 144.994 46.8775 145.144 46.9267C145.295 46.9728 145.446 47.0097 145.599 47.0374C145.75 47.062 145.892 47.0774 146.021 47.0774C146.467 47.0774 146.799 46.9943 147.017 46.8313C147.236 46.6653 147.346 46.4284 147.346 46.1178C147.346 45.9517 147.309 45.8072 147.236 45.6842C147.162 45.5611 147.06 45.4473 146.931 45.3458C146.802 45.2444 146.648 45.1459 146.473 45.0537C146.298 44.9614 146.107 44.863 145.904 44.7584C145.689 44.6508 145.489 44.5401 145.301 44.4263C145.113 44.3155 144.954 44.1925 144.815 44.0572C144.677 43.9219 144.569 43.7712 144.489 43.5989C144.409 43.4267 144.372 43.2268 144.372 42.9992C144.372 42.7193 144.434 42.4733 144.557 42.2641C144.68 42.055 144.843 41.8859 145.043 41.7505C145.243 41.6152 145.473 41.5168 145.729 41.4491C145.984 41.3845 146.248 41.3507 146.513 41.3507C147.122 41.3507 147.565 41.4245 147.842 41.5691V42.381C147.479 42.1288 147.008 42.0027 146.439 42.0027C146.282 42.0027 146.122 42.0181 145.965 42.0519C145.809 42.0858 145.667 42.138 145.544 42.2119C145.421 42.2857 145.32 42.3841 145.243 42.501C145.166 42.6178 145.126 42.7624 145.126 42.9315C145.126 43.0884 145.157 43.2268 145.215 43.3406C145.273 43.4544 145.36 43.559 145.476 43.6543C145.593 43.7496 145.732 43.8419 145.895 43.9311C146.061 44.0203 146.248 44.1187 146.464 44.2233C146.685 44.3309 146.894 44.4478 147.091 44.5677C147.288 44.6877 147.463 44.823 147.611 44.9676C147.762 45.1152 147.878 45.2751 147.965 45.4535C148.054 45.6319 148.097 45.8349 148.097 46.0655C148.097 46.37 148.038 46.6283 147.918 46.8375C147.798 47.0497 147.639 47.2189 147.436 47.3511C147.233 47.4834 146.999 47.5787 146.737 47.6371C146.473 47.6956 146.196 47.7263 145.904 47.7263C145.805 47.7263 145.686 47.7171 145.544 47.7017C145.4 47.6863 145.255 47.6617 145.104 47.6341C144.957 47.6033 144.815 47.5664 144.68 47.5233C144.548 47.4803 144.44 47.4311 144.36 47.3757L144.363 47.3696Z" fill="#636363"/>
<path d="M155.017 47.6186H151.747V41.4491H154.881V42.1042H152.473V44.1556H154.703V44.8045H152.473V46.9636H155.02V47.6186H155.017Z" fill="#636363"/>
<path d="M162.496 47.6186H161.777V43.479C161.777 43.1529 161.798 42.7501 161.838 42.2795H161.82C161.752 42.5594 161.691 42.7562 161.635 42.8792L159.525 47.6217H159.172L157.068 42.9131C157.007 42.7747 156.945 42.5655 156.884 42.2795H156.865C156.887 42.5255 156.899 42.9284 156.899 43.4882V47.6186H156.201V41.4491H157.157L159.052 45.7518C159.199 46.0809 159.292 46.33 159.335 46.493H159.359C159.482 46.1547 159.581 45.9025 159.658 45.7364L161.589 41.4491H162.493V47.6186H162.496Z" fill="#636363"/>
<path d="M113.088 58.0633C112.38 58.4723 111.501 58.6753 110.449 58.6753C109.283 58.6753 108.364 58.3524 107.69 57.7065C107.017 57.0607 106.681 56.1718 106.681 55.04C106.681 53.9082 107.047 52.9732 107.783 52.2536C108.518 51.5339 109.496 51.1771 110.714 51.1771C111.482 51.1771 112.159 51.2817 112.746 51.497V53.0286C112.187 52.7057 111.504 52.5427 110.695 52.5427C110.018 52.5427 109.465 52.761 109.04 53.2008C108.613 53.6406 108.401 54.2281 108.401 54.9631C108.401 55.6982 108.591 56.2825 108.976 56.6916C109.357 57.1006 109.874 57.3036 110.526 57.3036C110.916 57.3036 111.227 57.2483 111.455 57.1375V55.7228H110.003V54.4188H113.088V58.0633V58.0633Z" fill="#636363"/>
<path d="M118.845 58.5492H114.5V51.3002H118.679V52.6288H116.133V54.2404H118.504V55.566H116.133V57.2237H118.848V58.5492H118.845Z" fill="#636363"/>
<path d="M119.673 58.2693V56.6516C119.965 56.8976 120.285 57.0822 120.629 57.2052C120.974 57.3282 121.321 57.3897 121.672 57.3897C121.878 57.3897 122.056 57.3713 122.21 57.3343C122.364 57.2974 122.49 57.2452 122.594 57.1806C122.696 57.116 122.773 57.0391 122.825 56.9468C122.877 56.8576 122.902 56.7592 122.902 56.6577C122.902 56.5163 122.862 56.3902 122.782 56.2794C122.702 56.1687 122.591 56.0641 122.45 55.9719C122.308 55.8765 122.142 55.7873 121.952 55.6982C121.761 55.609 121.552 55.5198 121.33 55.4306C120.764 55.1938 120.343 54.9077 120.063 54.5664C119.786 54.225 119.645 53.8159 119.645 53.3331C119.645 52.9548 119.722 52.6318 119.873 52.3612C120.023 52.0905 120.229 51.866 120.491 51.6907C120.752 51.5154 121.054 51.3862 121.398 51.3032C121.742 51.2202 122.105 51.1802 122.49 51.1802C122.874 51.1802 123.2 51.2017 123.492 51.2478C123.785 51.294 124.052 51.3647 124.298 51.457V52.9671C124.178 52.884 124.043 52.8071 123.901 52.7456C123.757 52.681 123.609 52.6288 123.459 52.5857C123.308 52.5426 123.157 52.5119 123.007 52.4934C122.856 52.4719 122.714 52.4627 122.579 52.4627C122.394 52.4627 122.225 52.4811 122.075 52.515C121.924 52.5519 121.795 52.6011 121.69 52.6657C121.586 52.7303 121.506 52.8071 121.447 52.8963C121.389 52.9855 121.361 53.087 121.361 53.1977C121.361 53.3177 121.392 53.4284 121.456 53.5237C121.521 53.6191 121.61 53.7114 121.73 53.7975C121.847 53.8836 121.992 53.9666 122.161 54.0497C122.33 54.1327 122.521 54.2157 122.733 54.3049C123.022 54.4249 123.283 54.5541 123.514 54.6925C123.745 54.8278 123.941 54.9846 124.108 55.1538C124.274 55.3229 124.4 55.5228 124.486 55.7443C124.575 55.9657 124.618 56.221 124.618 56.5162C124.618 56.9191 124.541 57.2605 124.387 57.5343C124.234 57.808 124.028 58.0325 123.763 58.2017C123.502 58.3708 123.194 58.4938 122.847 58.5676C122.499 58.6415 122.13 58.6784 121.742 58.6784C121.355 58.6784 120.967 58.6445 120.608 58.5769C120.248 58.5092 119.937 58.4077 119.676 58.2724L119.673 58.2693Z" fill="#636363"/>
<path d="M130.901 52.6288H128.835V58.5492H127.198V52.6288H125.141V51.3002H130.904V52.6288H130.901Z" fill="#636363"/>
<path d="M137.628 58.5494H135.847L135.33 56.9378H132.753L132.242 58.5494H130.474L133.113 51.3003H135.047L137.625 58.5494H137.628ZM135.868 49.0552C135.868 49.5257 135.776 49.8917 135.589 50.1501C135.401 50.4084 135.146 50.5376 134.823 50.5376C134.534 50.5376 134.251 50.4638 133.974 50.3192C133.672 50.1624 133.466 50.0824 133.353 50.0824C133.082 50.0824 132.947 50.2639 132.947 50.6268H132.233C132.233 50.1593 132.325 49.7933 132.51 49.535C132.694 49.2766 132.956 49.1444 133.288 49.1444C133.562 49.1444 133.845 49.2274 134.137 49.3935C134.404 49.5411 134.604 49.6149 134.743 49.6149C135.004 49.6149 135.136 49.4273 135.136 49.0552H135.865H135.868ZM134.958 55.683L134.18 53.2472C134.122 53.0657 134.082 52.8473 134.06 52.5951H134.02C134.005 52.8073 133.962 53.0196 133.894 53.2256L133.107 55.683H134.961H134.958Z" fill="#636363"/>
<path d="M141.595 58.6753C140.556 58.6753 139.713 58.337 139.058 57.6604C138.406 56.9838 138.077 56.1042 138.077 55.0185C138.077 53.8713 138.409 52.9456 139.073 52.2382C139.737 51.5308 140.617 51.1771 141.712 51.1771C142.745 51.1771 143.582 51.5154 144.222 52.1921C144.861 52.8687 145.181 53.7637 145.181 54.8709C145.181 55.9781 144.849 56.9284 144.188 57.6266C143.527 58.3247 142.662 58.6722 141.598 58.6722L141.595 58.6753ZM141.666 52.5857C141.094 52.5857 140.639 52.801 140.3 53.2285C139.962 53.6591 139.796 54.2281 139.796 54.9354C139.796 55.6428 139.965 56.221 140.3 56.6393C140.635 57.0576 141.078 57.2667 141.626 57.2667C142.173 57.2667 142.635 57.0637 142.967 56.6578C143.296 56.2518 143.462 55.689 143.462 54.9662C143.462 54.2434 143.302 53.6314 142.982 53.2131C142.662 52.7949 142.226 52.5857 141.669 52.5857H141.666Z" fill="#636363"/>
<path d="M150.871 56.0519V58.5492H149.238V51.3002H151.797C153.624 51.3002 154.537 52.0691 154.537 53.6099C154.537 54.3388 154.276 54.9262 153.75 55.3753C153.227 55.8243 152.526 56.0488 151.649 56.0488H150.871V56.0519ZM150.871 52.555V54.8155H151.514C152.384 54.8155 152.818 54.4342 152.818 53.6745C152.818 52.9148 152.384 52.5581 151.514 52.5581H150.871V52.555Z" fill="#636363"/>
<path d="M161.506 55.4091C161.506 57.5866 160.491 58.6754 158.464 58.6754C156.438 58.6754 155.512 57.6112 155.512 55.486V51.3002H157.151V55.5045C157.151 56.6763 157.609 57.2637 158.526 57.2637C159.442 57.2637 159.876 56.6978 159.876 55.566V51.3002H161.509V55.4091H161.506ZM160.267 48.9935L158.686 50.6266H157.533L158.846 48.9935H160.267Z" fill="#636363"/>
<path d="M163.084 58.5492V51.3002H165.723C166.532 51.3002 167.153 51.4478 167.59 51.7461C168.023 52.0414 168.242 52.4597 168.242 53.0009C168.242 53.3915 168.109 53.7329 167.845 54.0282C167.58 54.3204 167.242 54.5264 166.83 54.6402V54.6617C167.347 54.7263 167.759 54.917 168.066 55.2338C168.374 55.5506 168.528 55.935 168.528 56.3902C168.528 57.0545 168.291 57.5804 167.814 57.971C167.337 58.3616 166.692 58.5554 165.867 58.5554H163.081L163.084 58.5492ZM164.717 52.5027V54.2219H165.434C165.772 54.2219 166.036 54.1389 166.23 53.9759C166.424 53.8129 166.522 53.5884 166.522 53.3024C166.522 52.7703 166.126 52.5027 165.329 52.5027H164.717V52.5027ZM164.717 55.4337V57.3436H165.603C165.981 57.3436 166.276 57.2575 166.489 57.0822C166.704 56.9069 166.808 56.667 166.808 56.3656C166.808 56.0642 166.704 55.8489 166.492 55.6828C166.283 55.5167 165.987 55.4368 165.609 55.4368H164.714L164.717 55.4337Z" fill="#636363"/>
<path d="M174.039 58.5492H169.721V51.3002H171.354V57.2237H174.039V58.5492Z" fill="#636363"/>
<path d="M176.647 58.5492H175.014V51.3002H176.647V58.5492Z" fill="#636363"/>
<path d="M183.49 58.2909C182.961 58.5461 182.269 58.6753 181.417 58.6753C180.304 58.6753 179.43 58.3493 178.794 57.6942C178.157 57.0391 177.837 56.1687 177.837 55.08C177.837 53.9205 178.194 52.9794 178.911 52.2597C179.627 51.54 180.556 51.1771 181.697 51.1771C182.405 51.1771 183.001 51.2663 183.487 51.4447V53.0163C183.001 52.7272 182.448 52.5827 181.829 52.5827C181.15 52.5827 180.599 52.7979 180.181 53.2254C179.763 53.6529 179.554 54.2342 179.554 54.9631C179.554 55.692 179.75 56.221 180.144 56.6393C180.538 57.0545 181.07 57.2636 181.737 57.2636C182.405 57.2636 182.958 57.1099 183.487 56.7992V58.2909H183.49Z" fill="#636363"/>
<path d="M191.13 58.5492H189.349L188.832 56.9377H186.255L185.745 58.5492H183.976L186.615 51.3002H188.549L191.127 58.5492H191.13ZM188.46 55.6828L187.682 53.247C187.624 53.0655 187.584 52.8472 187.562 52.595H187.522C187.507 52.8072 187.464 53.0194 187.396 53.2255L186.609 55.6828H188.463H188.46Z" fill="#636363"/>
<path d="M96.4276 15.999H95.6495V72.1493H96.4276V15.999Z" fill="#26B0EF"/>
<path d="M7.96251 38.3706C7.96251 39.8038 8.43307 40.5173 9.37418 40.5173H19.505C21.9101 40.5173 23.9584 41.3661 25.6438 43.0608C27.3354 44.7615 28.1781 46.8037 28.1781 49.1934V49.83C28.1781 52.2198 27.3354 54.2619 25.65 55.9596C23.9646 57.6512 21.9255 58.5031 19.5266 58.5031H2.95551V51.3094H19.5266C19.9202 51.3094 20.2616 51.1648 20.5507 50.8696C20.8398 50.5805 20.9844 50.2329 20.9844 49.8362C20.9844 48.4184 20.4984 47.711 19.5266 47.711H9.42032C7.05214 47.711 5.01921 46.8621 3.31843 45.1614C1.61765 43.4606 0.768799 41.4123 0.768799 39.0133V38.3767C0.768799 35.9778 1.61765 33.9295 3.31843 32.2318C5.01921 30.531 7.05214 29.6821 9.42032 29.6821H26.0375V36.8758H9.37418C9.01127 36.8758 8.68219 37.0204 8.39616 37.3156C8.10706 37.6109 7.96251 37.9677 7.96251 38.3706" fill="#636363"/>
<path d="M42.7623 29.7283H56.467V36.922H42.7316C40.8709 36.922 39.3331 37.6509 38.1029 39.0995C36.8665 40.548 36.2514 42.2334 36.2514 44.1618C36.2514 46.0902 36.8665 47.7295 38.1029 49.178C39.3331 50.6266 40.8801 51.3555 42.7408 51.3555H49.2733V47.7571H42.5347V40.5634H56.467V58.5492H42.7623C38.9087 58.5492 35.6609 57.1222 33.019 54.2681C30.3771 51.414 29.0577 48.0462 29.0577 44.1618C29.0577 40.2774 30.3771 36.9004 33.019 34.031C35.6609 31.1646 38.9087 29.7283 42.7623 29.7283" fill="#636363"/>
<path d="M74.951 45.1922C75.9844 45.1922 76.8548 44.7708 77.5499 43.922C78.2449 43.0731 78.5986 42.132 78.5986 41.1078C78.5986 40.0837 78.248 39.0964 77.5499 38.2476C76.8548 37.3987 75.9813 36.9774 74.951 36.9774H66.118V45.1922H74.951ZM74.9726 29.7252C78.0327 29.7252 80.6316 30.857 82.7752 33.1206C84.8235 35.3535 85.8508 38.0169 85.8508 41.1047C85.8508 44.1926 84.8266 46.8099 82.7845 49.0427C80.65 51.3063 78.0512 52.4381 74.9972 52.4381H66.118V58.5431H58.8659V29.7283H74.9756L74.9726 29.7252Z" fill="#636363"/>
<path fill-rule="evenodd" clip-rule="evenodd" d="M15.2915 5.05313C17.0446 4.56104 18.7208 4.09048 20.3139 3.64453C21.2919 4.17967 22.3007 4.73327 23.3495 5.3084C21.7379 5.82509 20.0248 6.37254 18.2287 6.94766C17.2076 6.28642 16.2326 5.65593 15.2915 5.05005V5.05313ZM25.8991 2.07907C27.1754 1.71923 28.4057 1.37477 29.5805 1.04569C30.5555 1.47011 31.5612 1.90376 32.6038 2.35587C31.4412 2.72494 30.2233 3.11553 28.9531 3.5215C27.8982 3.02326 26.8833 2.54348 25.8991 2.07907V2.07907ZM33.3142 0C32.2778 0.289102 31.2106 0.58743 30.1034 0.901136C31.0752 1.31941 32.0809 1.74999 33.1205 2.19287C34.2123 1.84533 35.2641 1.51009 36.2791 1.18716C35.258 0.778114 34.2738 0.384444 33.3173 0L33.3142 0ZM22.0946 9.50345C23.94 8.80837 25.6777 8.14713 27.3108 7.52894C26.1082 6.84925 24.9487 6.20031 23.8416 5.58212C22.2269 6.11112 20.5107 6.67087 18.7085 7.26137C19.7911 7.96875 20.9198 8.7161 22.0946 9.50345V9.50345ZM32.3178 5.64056C30.9614 6.15417 29.5375 6.68932 28.0243 7.2583C26.8187 6.59398 25.6592 5.95734 24.5489 5.35145C26.0559 4.85937 27.4799 4.39496 28.8455 3.95208C29.9588 4.4903 31.1121 5.05313 32.3147 5.64056H32.3178ZM32.9113 5.41604C34.1662 4.94241 35.3687 4.4903 36.5097 4.05972C35.3287 3.54303 34.1846 3.04479 33.0867 2.56501C31.9272 2.9433 30.7123 3.33697 29.4421 3.75217C30.5524 4.28116 31.7088 4.83476 32.9083 5.41297L32.9113 5.41604ZM5.53589 16.5803C8.61759 15.3654 11.4655 14.2459 14.0798 13.2218C15.2454 14.3013 16.4695 15.4485 17.7704 16.6756C15.0178 17.952 11.9945 19.3575 8.6914 20.8953C7.56268 19.3514 6.51699 17.9181 5.53589 16.5803V16.5803ZM21.7656 10.2231C19.7295 11.0166 17.5521 11.8624 15.2085 12.782C16.3864 13.8277 17.6289 14.941 18.9453 16.1282C21.3873 14.9995 23.6293 13.9661 25.7146 13.0034C24.3336 12.0192 23.0204 11.0935 21.7625 10.22L21.7656 10.2231ZM22.6544 9.87866C24.4997 9.16206 26.2405 8.48544 27.8767 7.85188C29.1592 8.58386 30.494 9.35274 31.8933 10.1708C30.2541 10.9213 28.4949 11.7301 26.6188 12.5882C25.2286 11.6317 23.9123 10.7306 22.6513 9.87866H22.6544ZM32.8837 5.91736C31.5273 6.4402 30.1034 6.99072 28.5933 7.57508C29.8758 8.29168 31.2136 9.04519 32.613 9.84176C34.117 9.15283 35.5317 8.50697 36.8757 7.89801C35.4887 7.20601 34.16 6.54784 32.8837 5.91736ZM33.4772 5.68977C34.7351 5.2069 35.9315 4.74557 37.0695 4.30577C38.3212 4.85629 39.6222 5.42834 40.9785 6.02808C39.8652 6.53247 38.6934 7.06761 37.4601 7.63044C36.0761 6.95074 34.7536 6.30487 33.4803 5.68977H33.4772ZM31.0845 16.9247C28.9593 18.1488 26.6649 19.4682 24.1399 20.926C22.5252 19.4159 20.9997 18.0012 19.5727 16.7002C22.0301 15.5315 24.2814 14.4674 26.3727 13.474C27.8613 14.5443 29.4329 15.6976 31.0845 16.9217V16.9247ZM31.9979 16.3988C33.8832 15.3193 35.6455 14.3075 37.2755 13.3725C35.6271 12.376 34.0524 11.438 32.5607 10.5553C30.9215 11.3272 29.1561 12.1576 27.28 13.0434C28.7655 14.086 30.3433 15.2055 32.001 16.3958L31.9979 16.3988ZM42.1626 10.583C40.8555 11.3272 39.4684 12.1177 37.9891 12.9696C36.3437 11.9977 34.7721 11.0812 33.2773 10.22C34.7782 9.51267 36.1899 8.85143 37.5308 8.22402C39.0009 8.96522 40.5479 9.75256 42.1657 10.583H42.1626ZM42.7285 10.26C43.9249 9.58033 45.0536 8.93447 46.1239 8.32859C44.5584 7.62429 43.0514 6.95382 41.6151 6.31103C40.5079 6.82772 39.3392 7.37517 38.109 7.95029C39.5791 8.6792 41.12 9.44809 42.7285 10.26ZM49.4209 6.45865C48.5228 6.96919 47.5817 7.49819 46.5945 8.06101C45.0352 7.37209 43.5343 6.71085 42.1042 6.08344C43.1345 5.60057 44.1125 5.14539 45.0598 4.70559C46.453 5.26534 47.9108 5.84969 49.424 6.45558L49.4209 6.45865ZM31.8749 17.5153C29.7497 18.7793 27.4492 20.1479 24.9149 21.658C26.7018 23.3557 28.6087 25.1918 30.6754 27.2063C33.2281 25.2779 35.5317 23.5402 37.6446 21.9471C35.5963 20.3478 33.6802 18.8808 31.8749 17.5153V17.5153ZM32.7883 16.9709C34.6736 15.8545 36.4328 14.8118 38.0567 13.8492C39.8436 14.9472 41.7197 16.1159 43.7127 17.3799C42.1288 18.5702 40.4034 19.865 38.5488 21.2643C36.5036 19.7204 34.5937 18.2964 32.7852 16.974L32.7883 16.9709ZM42.9253 10.9766C41.6213 11.7424 40.2465 12.5575 38.7641 13.4309C40.5418 14.4981 42.4117 15.633 44.3985 16.8602C45.8286 15.7868 47.1542 14.7903 48.3998 13.8553C46.4807 12.8312 44.6599 11.8778 42.9253 10.9736V10.9766ZM43.4912 10.6445C44.6784 9.94632 45.804 9.28201 46.862 8.66075C48.5382 9.42041 50.2913 10.2139 52.1397 11.0597C51.1401 11.807 50.0729 12.6036 48.9411 13.4494C47.0281 12.4529 45.2166 11.521 43.4943 10.6414L43.4912 10.6445ZM55.9011 17.9704C54.7631 19.1822 53.5483 20.4801 52.2319 21.8887C49.793 20.2894 47.4956 18.8101 45.3396 17.4476C46.7575 16.3373 48.0738 15.307 49.3102 14.3444C51.3831 15.4669 53.5821 16.6756 55.9011 17.9704Z" fill="#26B0EF"/>
</svg>
